<svg version="1.1" id="Layer_1" xmlns="http://www.w3.org/2000/svg" xmlns:xlink="http://www.w3.org/1999/xlink" x="0px" y="0px"
	 width="100%" viewBox="0 0 478 395" enable-background="new 0 0 478 395" xml:space="preserve">
<path fill="#FEFDFD" opacity="1.000000" stroke="none" 
	d="
M337.000000,396.000000 
	C224.698669,396.000000 112.897339,396.000000 1.048004,396.000000 
	C1.048004,264.403015 1.048004,132.806030 1.048004,1.104521 
	C160.218002,1.104521 319.436096,1.104521 478.827087,1.104521 
	C478.827087,132.666473 478.827087,264.333221 478.827087,396.000000 
	C431.806000,396.000000 384.653015,396.000000 337.000000,396.000000 
M240.855911,50.083649 
	C243.620056,49.558556 246.445480,49.245918 249.137161,48.469566 
	C258.152740,45.869225 267.241913,44.019249 276.696259,44.884262 
	C279.019440,45.096821 281.339630,45.342209 283.661194,45.572506 
	C283.772949,45.223991 283.884674,44.875477 283.996399,44.526962 
	C281.310974,42.247330 278.625549,39.967701 275.495850,37.310936 
	C278.502167,35.310810 280.898743,33.716358 284.297211,31.455343 
	C281.465851,31.155207 279.682678,30.620291 278.004364,30.850346 
	C271.925140,31.683640 265.886902,32.810841 259.822205,33.756817 
	C253.293808,34.775135 246.753052,35.714401 240.370499,35.964371 
	C241.013672,34.826176 242.306168,33.595207 242.159683,32.569839 
	C241.886948,30.661034 241.240204,28.238792 239.867752,27.233139 
	C238.767609,26.427023 235.802322,26.770914 234.692902,27.758934 
	C233.546173,28.780203 232.655838,31.998674 233.360504,32.861000 
	C236.513016,36.718956 235.366852,41.044033 235.531952,45.218628 
	C235.753616,50.822823 235.805252,56.433743 235.603424,62.721584 
	C230.019455,67.604881 225.130310,73.907715 218.697327,77.056381 
	C207.576279,82.499664 195.547180,86.129379 183.793747,90.217232 
	C179.486313,91.715363 174.879730,92.353432 170.252502,93.420036 
	C170.252502,98.074539 170.015106,102.244308 170.326401,106.372711 
	C170.582825,109.773277 169.172501,111.927483 166.753799,114.042793 
	C144.458069,133.541611 119.950317,149.852081 94.013580,163.989807 
	C79.299583,172.010193 64.137672,179.208847 48.694359,187.022003 
	C50.258999,187.576721 51.558620,188.331116 52.922966,188.476013 
	C67.485619,190.022476 82.053650,191.524796 96.635193,192.877686 
	C98.318176,193.033829 100.464622,192.714569 101.760002,191.755997 
	C107.776146,187.304138 113.764465,182.774826 119.405518,177.862991 
	C140.965149,159.090271 160.231003,138.202057 176.832443,114.886253 
	C177.714188,113.647881 179.274200,112.144966 180.580475,112.083504 
	C186.818283,111.790001 193.077515,111.951958 200.314041,111.951958 
	C181.686310,143.414139 162.972336,173.505722 134.075180,197.093964 
	C142.399490,197.646500 149.522049,198.197739 156.653748,198.577469 
	C175.532059,199.582718 177.595856,198.397430 186.981155,181.594330 
	C187.062363,181.448959 187.131989,181.297180 187.209900,181.149918 
	C197.986633,160.779419 204.033813,138.886063 208.195602,116.366692 
	C208.481781,114.818108 209.635895,112.225632 210.497345,112.179245 
	C217.058167,111.826019 223.646606,111.985741 230.811218,111.985741 
	C226.633774,143.238434 222.704742,173.646973 205.432724,200.275879 
	C226.867584,200.275879 248.137390,200.275879 269.347321,200.275879 
	C251.898804,173.324036 248.462112,142.961304 244.478882,111.932770 
	C251.534546,111.932770 257.824036,111.792656 264.094330,112.076469 
	C265.090729,112.121567 266.573792,113.940788 266.858276,115.165840 
	C268.776001,123.424881 270.046722,131.848511 272.250000,140.023972 
	C277.107147,158.047058 282.975372,175.645355 293.833252,191.242859 
	C298.427094,197.842010 303.505219,201.349228 311.673248,198.984009 
	C313.387115,198.487717 315.318420,198.762421 317.146393,198.636414 
	C324.628326,198.120590 332.109039,197.587158 340.630005,196.986984 
	C311.653625,173.389648 293.239105,143.365799 275.045074,111.911530 
	C280.912811,111.911530 285.585938,112.234215 290.192841,111.820129 
	C294.735657,111.411812 297.466949,113.180420 300.048462,116.793282 
	C320.406891,145.285202 344.068207,170.640839 372.327820,191.480820 
	C374.361969,192.980911 377.504608,193.887970 380.012848,193.674240 
	C389.784607,192.841644 399.512695,191.480545 409.248199,190.246109 
	C414.569122,189.571442 419.872314,188.756714 425.183502,188.005142 
	C425.280548,187.558792 425.377594,187.112442 425.474640,186.666077 
	C423.907104,185.728119 422.410156,184.637573 420.761597,183.874573 
	C383.307770,166.539825 347.704712,146.248199 315.538879,120.092957 
	C308.066315,114.016739 303.237640,107.982048 305.176697,98.076599 
	C305.897736,94.393364 304.279449,92.793587 300.600037,92.159065 
	C285.422516,89.541664 270.863831,84.943031 257.193146,77.746506 
	C249.766769,73.837112 243.253403,68.894203 239.482071,60.550797 
	C239.654556,57.061317 239.827026,53.571842 240.855911,50.083649 
M39.641582,345.959747 
	C39.506756,354.457733 49.735298,359.321381 57.507431,352.299072 
	C60.982674,354.354401 63.986221,357.391144 67.256134,357.711823 
	C70.556686,358.035522 74.121429,355.665253 76.327774,354.903992 
	C79.944771,356.770721 83.061531,359.524963 86.353539,359.753418 
	C89.590523,359.977966 93.005371,357.639130 96.587029,356.336060 
	C101.866821,363.900879 107.248665,364.422852 113.966965,358.309570 
	C117.485069,360.262695 120.562546,363.241516 123.789177,363.412994 
	C127.163719,363.592255 130.681671,361.072327 134.378357,359.638641 
	C139.390808,367.091888 144.945877,367.502014 151.650055,361.013428 
	C155.166779,362.888702 158.288559,365.804169 161.525696,365.938416 
	C164.972092,366.081360 168.527649,363.591675 172.300812,362.150055 
	C177.513229,369.220886 182.440628,369.406250 189.489334,363.068054 
	C193.245300,364.887115 196.501617,367.726746 199.711426,367.675049 
	C203.140259,367.619873 206.525208,364.836029 210.055588,363.184235 
	C214.512711,370.122406 219.988037,370.319366 228.373825,363.152496 
	C234.234344,370.338745 239.869659,370.374756 246.134323,364.197418 
	C250.049545,365.653534 253.445236,367.956177 256.769348,367.857086 
	C260.021362,367.760101 263.200348,365.214813 266.791321,363.570190 
	C272.692444,370.024933 278.316681,369.923035 284.734070,362.304260 
	C292.394836,369.463654 296.918427,369.244232 303.669281,361.385773 
	C309.273621,367.739044 316.476929,368.946899 322.564484,360.265381 
	C330.210754,367.438110 334.680054,367.151703 340.666779,360.007141 
	C344.550873,361.358307 348.081390,363.706024 351.383972,363.420105 
	C354.678589,363.134888 357.744751,360.210480 361.138245,358.316345 
	C367.668365,364.210693 371.971191,363.782562 378.418579,356.908447 
	C382.507965,358.071106 386.141693,360.181885 389.428558,359.735992 
	C392.723267,359.289001 395.671814,356.290588 398.950195,354.302490 
	C405.786316,360.378571 410.176453,359.818481 416.868073,351.528351 
	C422.915436,356.072266 427.011444,356.711548 431.348389,353.788330 
	C434.681732,351.541595 437.638275,343.964233 435.268250,341.475769 
	C433.804810,339.939209 429.946564,340.112946 427.258484,340.402100 
	C402.133331,343.104553 377.087311,346.807373 351.903290,348.630676 
	C320.857330,350.878326 289.712250,352.306549 258.589844,352.788727 
	C229.627808,353.237396 200.634720,352.161133 171.663544,351.429626 
	C129.356979,350.361450 87.371300,345.535553 45.478558,339.878235 
	C40.783215,339.244171 38.774273,340.320282 39.641582,345.959747 
M66.936363,211.593338 
	C70.506874,210.458298 74.077385,209.323257 76.602333,208.520599 
	C79.947617,210.437332 82.988914,213.435425 86.247398,213.693710 
	C89.504471,213.951920 92.978813,211.469254 96.543030,210.117920 
	C101.877403,217.749084 106.480774,218.157059 114.056671,211.916840 
	C117.512215,213.988129 120.527641,217.145050 123.726151,217.342972 
	C127.097015,217.551529 130.642731,214.934143 134.387299,213.441711 
	C139.800644,220.868835 144.880356,221.258850 152.527695,214.037903 
	C157.887085,222.248611 165.528259,221.769363 170.652527,216.032288 
	C174.224686,217.769760 177.428574,220.536896 180.660614,220.570206 
	C184.095505,220.605606 187.557098,218.049240 191.225113,216.534561 
	C195.925568,223.587723 202.007523,223.773270 209.354004,216.263077 
	C214.974854,223.804047 220.189346,224.009323 228.299149,217.008896 
	C234.752457,223.988693 239.483261,224.008804 247.198715,217.089233 
	C254.164520,223.951828 259.523376,223.794052 265.103027,217.422791 
	C268.888245,218.904129 272.297882,221.334106 275.628876,221.230743 
	C278.893188,221.129440 282.077515,218.449478 285.588959,216.760849 
	C291.887421,223.127609 297.199402,222.829819 303.572113,215.142838 
	C309.504395,221.671310 316.940491,222.344696 321.887482,215.082458 
	C325.599060,216.437363 329.118958,218.887070 332.393463,218.594086 
	C335.750885,218.293701 338.868225,215.310089 342.314850,213.374969 
	C348.265320,219.910400 353.979492,219.485764 359.654602,212.045853 
	C363.347412,213.432556 366.891754,215.995285 370.109497,215.635696 
	C373.531616,215.253265 376.644318,212.102051 379.359406,210.478378 
	C382.229279,211.608826 385.541809,214.154739 388.419281,213.732925 
	C392.017395,213.205505 395.257812,210.238007 398.989319,208.134048 
	C405.221954,213.881851 410.486481,213.320755 416.854095,205.230820 
	C420.917542,208.994247 425.390167,211.063660 430.809021,207.963516 
	C435.260529,205.416779 435.576233,201.085022 435.706451,196.669373 
	C435.789154,193.864136 434.689240,192.891968 431.716797,193.342850 
	C422.356171,194.762711 412.985229,196.257507 403.562561,197.099945 
	C369.270477,200.165771 335.004028,204.145599 300.636322,205.568268 
	C263.882690,207.089706 227.010300,206.803619 190.218521,205.995956 
	C162.299423,205.383072 134.386353,203.176239 106.544060,200.813248 
	C85.348587,199.014389 64.272072,195.825104 43.126354,193.396164 
	C42.058880,193.273560 40.197014,194.220734 39.799770,195.141907 
	C38.249279,198.737381 40.267540,205.219513 43.384460,207.372055 
	C47.377495,210.129639 51.472134,210.117004 55.511192,207.409927 
	C56.539944,206.720413 57.487324,205.909500 57.526291,205.879623 
	C60.819267,207.990036 63.502014,209.709351 66.936363,211.593338 
M199.477676,298.529114 
	C199.478256,297.862671 199.317657,297.145020 199.510178,296.539612 
	C200.049011,294.845093 200.733765,293.197021 201.360931,291.530609 
	C202.884979,292.709656 205.034546,293.572815 205.818771,295.125519 
	C208.437759,300.310974 210.625977,305.719177 212.863770,311.090118 
	C214.246689,314.409271 215.011108,317.736816 210.684586,319.772675 
	C215.144196,325.725586 219.399719,322.652679 223.419312,320.348389 
	C230.131577,324.444733 231.754593,324.340942 234.532394,320.102386 
	C225.576248,311.551178 223.961258,299.248657 217.730301,289.669220 
	C232.308685,274.971130 232.744370,266.280457 223.480133,252.509216 
	C217.675430,243.880585 203.912811,242.593719 192.218750,249.002106 
	C185.547073,244.860764 183.721222,245.041779 181.736908,248.872589 
	C182.920288,251.866562 184.340073,253.880478 184.419617,255.945999 
	C184.695023,263.096863 184.643768,270.270050 184.420044,277.425476 
	C184.333832,280.183197 182.933289,282.934448 183.029572,285.656891 
	C183.327652,294.087067 184.332138,302.497375 184.474045,310.925293 
	C184.525253,313.966980 182.908707,317.036774 181.839294,320.858185 
	C184.526413,324.286102 185.603607,324.316223 192.376236,320.212280 
	C198.597534,324.423676 200.163132,324.326569 202.701065,320.492432 
	C201.521515,317.376038 200.080704,315.001801 199.795319,312.495972 
	C199.307816,308.215302 199.544724,303.852203 199.477676,298.529114 
M342.169830,322.002594 
	C344.901489,330.445129 350.891327,334.058502 359.562439,334.065918 
	C368.645660,334.073700 376.252045,331.331970 379.539581,322.223297 
	C384.834808,307.551788 384.513916,293.181824 375.309174,279.862457 
	C372.226440,275.401672 368.951996,271.073364 365.643433,266.516815 
	C359.211090,268.285431 356.517212,266.933289 355.557434,259.691010 
	C355.008209,255.546555 355.756226,251.121933 356.589508,246.957336 
	C356.909424,245.358200 358.846222,243.650467 360.469666,242.829559 
	C364.481445,240.800964 369.514343,242.711441 372.642700,246.984268 
	C376.145477,251.768570 376.605316,258.316376 374.044403,261.708771 
	C373.405457,262.555115 373.412262,264.761230 374.066559,265.466858 
	C374.724457,266.176453 377.148468,266.378540 377.753510,265.767731 
	C378.949310,264.560638 380.048340,262.655792 380.092041,261.010376 
	C380.317688,252.510895 380.196808,244.002213 380.196808,235.496750 
	C379.706116,235.335281 379.215424,235.173813 378.724701,235.012344 
	C377.290924,236.615387 375.857147,238.218414 374.429535,239.823486 
	C360.748505,228.252136 344.777924,236.337509 342.647888,252.277405 
	C341.869568,258.101776 341.325592,264.574280 343.068726,269.978943 
	C345.917480,278.811584 350.727539,287.011658 354.650574,295.351868 
	C361.335968,294.587250 364.080383,295.332489 365.799286,299.140106 
	C369.038055,306.314545 369.353455,313.756653 365.660278,320.825745 
	C362.207916,327.433899 353.697693,327.520142 349.664246,321.288788 
	C345.636047,315.065643 347.436127,304.995056 354.360321,299.785034 
	C352.066711,298.377136 350.002075,296.088684 348.270477,296.317780 
	C346.317810,296.576141 343.923370,298.755096 343.016754,300.702026 
	C339.949890,307.288086 340.466949,314.271576 342.169830,322.002594 
M132.948181,331.679108 
	C143.763290,326.055328 145.526199,305.217499 140.707626,297.009216 
	C139.729660,295.343262 137.015305,293.704803 135.190887,293.798340 
	C133.251144,293.897736 131.417709,296.071228 129.537857,297.339020 
	C130.545395,296.858643 131.552933,296.378235 132.560471,295.897827 
	C133.542038,298.275604 134.813889,300.578552 135.450195,303.045410 
	C137.286377,310.164093 136.707932,317.052216 131.681381,322.783417 
	C126.979279,328.144714 119.006020,326.857666 116.175827,320.306366 
	C114.951447,317.472168 114.065216,314.243713 114.032646,311.183655 
	C113.841133,293.189789 113.837257,275.191467 114.053764,257.198029 
	C114.092567,253.973099 115.204781,250.678009 116.271667,247.569870 
	C117.557571,243.823639 120.529099,242.289322 124.490669,242.423721 
	C132.672928,242.701294 140.296341,253.673248 137.589264,261.426300 
	C137.409592,261.940918 136.631058,262.249695 136.460388,262.763580 
	C136.048920,264.002502 135.832825,265.306305 135.537949,266.583923 
	C136.970901,266.734283 138.983521,267.535095 139.707489,266.889923 
	C140.942474,265.789307 141.989792,263.796448 142.030731,262.151367 
	C142.250259,253.330566 142.134399,244.501389 142.134399,235.675110 
	C141.655746,235.512085 141.177078,235.349075 140.698425,235.186066 
	C139.239105,236.963379 137.779800,238.740677 137.063782,239.612747 
	C132.301437,237.978302 127.952438,235.540085 123.419624,235.129089 
	C114.299049,234.302109 104.753792,241.597275 101.309219,252.960129 
	C97.066460,266.955994 90.581184,280.958313 96.199333,296.226593 
	C96.310265,296.528076 96.237061,296.892090 96.297852,297.217987 
	C98.075989,306.749969 100.171486,316.158966 106.264359,324.098572 
	C113.322845,333.296417 121.200027,335.706726 132.948181,331.679108 
M290.401520,284.358795 
	C291.071381,290.768463 291.996613,297.163879 292.354309,303.590942 
	C292.971069,314.673798 300.277832,322.535248 311.073517,323.247437 
	C322.992004,324.033722 331.503265,318.033051 332.929016,307.560242 
	C333.999115,299.699799 334.738525,291.794189 335.597443,283.905670 
	C335.648224,283.439423 335.421082,282.949219 335.375977,282.465240 
	C334.686157,275.067291 333.878998,267.677216 333.367249,260.266846 
	C333.037262,255.488037 333.676910,250.940430 339.173462,249.165710 
	C336.380280,244.178131 335.274170,244.016708 330.591888,247.554001 
	C325.580139,243.933563 323.696106,244.302567 321.700714,249.478851 
	C326.645111,250.177475 327.436890,253.716858 327.427155,257.862427 
	C327.393555,272.191833 327.499420,286.522552 327.313416,300.849731 
	C327.275482,303.774597 326.556244,306.819366 325.521393,309.572174 
	C323.992310,313.639771 320.593506,315.076874 316.313538,314.959290 
	C312.173431,314.845551 309.775970,312.598236 308.695282,308.948944 
	C307.949188,306.429413 307.456299,303.736237 307.437012,301.116364 
	C307.327728,286.287903 307.271759,271.456055 307.513489,256.630524 
	C307.558777,253.852081 309.035889,251.096970 310.113159,247.447205 
	C307.769379,244.100311 306.646973,244.039261 299.764740,247.964905 
	C293.365448,243.934067 291.667603,244.061737 289.095673,248.326126 
	C290.210693,250.342789 291.974152,252.073654 292.011200,253.840698 
	C292.219330,263.770142 293.865723,273.824646 290.401520,284.358795 
M255.012543,273.512756 
	C255.026962,270.180084 254.980606,266.845795 255.068375,263.515045 
	C255.256195,256.387115 258.761078,251.517014 264.048676,250.914902 
	C270.197449,250.214767 277.388916,255.083984 278.734100,261.282257 
	C279.173737,263.307953 281.213470,266.687683 276.538269,267.091339 
	C276.971252,268.397186 277.081482,270.546326 277.895050,270.857697 
	C280.860077,271.992493 283.097870,270.214325 283.223297,267.402679 
	C283.548706,260.108398 283.332550,252.789963 283.332550,245.481171 
	C282.910736,245.372604 282.488922,245.264038 282.067108,245.155457 
	C280.561951,246.588898 279.056793,248.022339 278.189392,248.848404 
	C273.719910,247.480759 269.739990,245.514694 265.617554,245.147186 
	C254.903915,244.192093 246.263290,250.183609 241.216003,262.204834 
	C238.334991,269.066650 236.519836,276.379333 234.320419,283.518463 
	C234.113159,284.191193 234.542053,285.090057 234.762268,285.859131 
	C235.720596,289.205963 236.817093,292.516846 237.669434,295.889801 
	C240.006134,305.136810 243.642288,313.605621 251.664444,319.429321 
	C258.703583,324.539459 270.441010,324.790924 277.162628,320.101471 
	C283.360901,315.777069 286.330780,306.139496 283.458527,297.547150 
	C282.699738,295.277222 280.256195,292.732544 278.044556,292.037354 
	C276.089233,291.422729 273.379883,293.206940 271.003448,293.932007 
	C271.033752,294.484161 271.064026,295.036316 271.094330,295.588470 
	C276.546478,296.573029 277.807404,300.226501 277.428314,304.841553 
	C276.993042,310.140839 275.177704,314.620178 269.700104,316.581879 
	C261.805359,319.409241 255.327118,314.628967 255.114349,305.501190 
	C254.873642,295.175018 255.029251,284.839630 255.012543,273.512756 
M151.961014,288.139374 
	C152.265808,295.777161 152.841324,303.418915 152.730637,311.050659 
	C152.691162,313.773163 150.989197,316.471527 149.735458,320.073303 
	C151.838257,323.686279 152.612152,323.750763 160.395966,319.840271 
	C166.649857,323.972473 169.021500,323.688812 170.739471,320.030151 
	C169.496613,316.833984 168.175064,314.822205 168.006302,312.717987 
	C167.634430,308.080963 167.592499,303.381439 167.884079,298.736847 
	C168.203445,293.650146 169.625626,288.586731 169.539719,283.530670 
	C169.388229,274.617096 168.243271,265.722961 167.985535,256.807068 
	C167.910995,254.228897 169.446304,251.604172 170.530899,248.062637 
	C168.413010,244.827133 167.559723,244.772751 159.704514,248.513535 
	C153.738785,244.620529 151.906998,244.756088 149.750961,248.340500 
	C150.935547,251.535034 152.659607,254.000153 152.602829,256.423553 
	C152.397873,265.173126 151.545944,273.905945 151.059860,282.651886 
	C150.973175,284.211517 151.465042,285.803314 151.961014,288.139374 
z"/>
<path fill="#A11C2D" opacity="1.000000" stroke="none" 
	d="
M239.124588,61.339722 
	C243.253403,68.894203 249.766769,73.837112 257.193146,77.746506 
	C270.863831,84.943031 285.422516,89.541664 300.600037,92.159065 
	C304.279449,92.793587 305.897736,94.393364 305.176697,98.076599 
	C303.237640,107.982048 308.066315,114.016739 315.538879,120.092957 
	C347.704712,146.248199 383.307770,166.539825 420.761597,183.874573 
	C422.410156,184.637573 423.907104,185.728119 425.474640,186.666077 
	C425.377594,187.112442 425.280548,187.558792 425.183502,188.005142 
	C419.872314,188.756714 414.569122,189.571442 409.248199,190.246109 
	C399.512695,191.480545 389.784607,192.841644 380.012848,193.674240 
	C377.504608,193.887970 374.361969,192.980911 372.327820,191.480820 
	C344.068207,170.640839 320.406891,145.285202 300.048462,116.793282 
	C297.466949,113.180420 294.735657,111.411812 290.192841,111.820129 
	C285.585938,112.234215 280.912811,111.911530 275.045074,111.911530 
	C293.239105,143.365799 311.653625,173.389648 340.630005,196.986984 
	C332.109039,197.587158 324.628326,198.120590 317.146393,198.636414 
	C315.318420,198.762421 313.387115,198.487717 311.673248,198.984009 
	C303.505219,201.349228 298.427094,197.842010 293.833252,191.242859 
	C282.975372,175.645355 277.107147,158.047058 272.250000,140.023972 
	C270.046722,131.848511 268.776001,123.424881 266.858276,115.165840 
	C266.573792,113.940788 265.090729,112.121567 264.094330,112.076469 
	C257.824036,111.792656 251.534546,111.932770 244.478882,111.932770 
	C248.462112,142.961304 251.898804,173.324036 269.347321,200.275879 
	C248.137390,200.275879 226.867584,200.275879 205.432724,200.275879 
	C222.704742,173.646973 226.633774,143.238434 230.811218,111.985741 
	C223.646606,111.985741 217.058167,111.826019 210.497345,112.179245 
	C209.635895,112.225632 208.481781,114.818108 208.195602,116.366692 
	C204.033813,138.886063 197.986633,160.779419 187.209900,181.149918 
	C187.131989,181.297180 187.062363,181.448959 186.981155,181.594330 
	C177.595856,198.397430 175.532059,199.582718 156.653748,198.577469 
	C149.522049,198.197739 142.399490,197.646500 134.075180,197.093964 
	C162.972336,173.505722 181.686310,143.414139 200.314041,111.951958 
	C193.077515,111.951958 186.818283,111.790001 180.580475,112.083504 
	C179.274200,112.144966 177.714188,113.647881 176.832443,114.886253 
	C160.231003,138.202057 140.965149,159.090271 119.405518,177.862991 
	C113.764465,182.774826 107.776146,187.304138 101.760002,191.755997 
	C100.464622,192.714569 98.318176,193.033829 96.635193,192.877686 
	C82.053650,191.524796 67.485619,190.022476 52.922966,188.476013 
	C51.558620,188.331116 50.258999,187.576721 48.694359,187.022003 
	C64.137672,179.208847 79.299583,172.010193 94.013580,163.989807 
	C119.950317,149.852081 144.458069,133.541611 166.753799,114.042793 
	C169.172501,111.927483 170.582825,109.773277 170.326401,106.372711 
	C170.015106,102.244308 170.252502,98.074539 170.252502,93.420036 
	C174.879730,92.353432 179.486313,91.715363 183.793747,90.217232 
	C195.547180,86.129379 207.576279,82.499664 218.697327,77.056381 
	C225.130310,73.907715 230.019455,67.604881 236.025284,62.274330 
	C237.339630,61.664623 238.232101,61.502171 239.124588,61.339722 
M197.730896,98.551414 
	C196.674789,100.075356 195.242874,101.494957 194.774490,103.182060 
	C194.618881,103.742561 196.954605,105.742783 198.120468,105.716446 
	C199.341537,105.688873 201.677689,103.656517 201.513046,103.130127 
	C200.985474,101.443275 199.526199,100.047829 197.730896,98.551414 
M289.303680,101.776596 
	C290.628998,103.160271 291.796753,104.817871 293.390594,105.734756 
	C293.788391,105.963593 296.118805,103.976944 296.516846,102.686523 
	C296.816040,101.716682 295.310425,99.116470 294.840881,99.173035 
	C293.018036,99.392632 291.288116,100.383888 289.303680,101.776596 
M279.964630,99.770218 
	C277.770905,97.871918 275.442596,97.883385 274.180695,100.451157 
	C273.616302,101.599625 274.415741,103.809830 275.265015,105.096886 
	C275.691803,105.743721 278.401276,105.904724 278.713654,105.414955 
	C279.642731,103.958206 279.895294,102.069992 279.964630,99.770218 
M185.769440,101.008286 
	C184.236374,98.385742 182.017426,97.396095 179.819504,99.740540 
	C178.967636,100.649223 179.193176,103.051460 179.679977,104.524818 
	C179.918335,105.246254 182.354736,106.086937 182.959183,105.667450 
	C184.251648,104.770432 184.999176,103.088188 185.769440,101.008286 
M242.547607,100.326233 
	C243.198532,102.108009 243.697769,103.981239 244.659103,105.575882 
	C244.808365,105.823471 247.747940,105.143196 248.190308,104.276237 
	C248.795563,103.089989 248.730530,100.304413 248.091309,99.997261 
	C246.677155,99.317764 244.725281,99.757278 242.547607,100.326233 
M226.221756,102.471466 
	C227.578339,103.606133 228.934906,104.740799 230.291489,105.875481 
	C231.242950,104.690025 232.902969,103.528481 232.943985,102.312302 
	C232.983963,101.127357 231.046524,98.740730 230.538177,98.883194 
	C228.957870,99.326065 227.643845,100.719063 226.221756,102.471466 
M212.218704,105.484116 
	C213.844498,104.835022 215.874222,104.549522 216.924622,103.382530 
	C217.445190,102.804153 216.555511,100.167763 215.568405,99.282623 
	C214.841965,98.631210 211.812805,99.054916 211.723862,99.440727 
	C211.312119,101.227074 211.569275,103.167595 212.218704,105.484116 
M265.053955,102.307701 
	C263.799103,101.094421 262.710724,99.404114 261.214661,98.882034 
	C260.532379,98.643936 258.460541,100.546753 258.110291,101.786774 
	C257.835480,102.759834 259.438202,105.324226 259.860748,105.248566 
	C261.638702,104.930237 263.286713,103.886246 265.053955,102.307701 
z"/>
<path fill="#4E8E9D" opacity="1.000000" stroke="none" 
	d="
M39.608082,345.570465 
	C38.774273,340.320282 40.783215,339.244171 45.478558,339.878235 
	C87.371300,345.535553 129.356979,350.361450 171.663544,351.429626 
	C200.634720,352.161133 229.627808,353.237396 258.589844,352.788727 
	C289.712250,352.306549 320.857330,350.878326 351.903290,348.630676 
	C377.087311,346.807373 402.133331,343.104553 427.258484,340.402100 
	C429.946564,340.112946 433.804810,339.939209 435.268250,341.475769 
	C437.638275,343.964233 434.681732,351.541595 431.348389,353.788330 
	C427.011444,356.711548 422.915436,356.072266 416.868073,351.528351 
	C410.176453,359.818481 405.786316,360.378571 398.950195,354.302490 
	C395.671814,356.290588 392.723267,359.289001 389.428558,359.735992 
	C386.141693,360.181885 382.507965,358.071106 378.418579,356.908447 
	C371.971191,363.782562 367.668365,364.210693 361.138245,358.316345 
	C357.744751,360.210480 354.678589,363.134888 351.383972,363.420105 
	C348.081390,363.706024 344.550873,361.358307 340.666779,360.007141 
	C334.680054,367.151703 330.210754,367.438110 322.564484,360.265381 
	C316.476929,368.946899 309.273621,367.739044 303.669281,361.385773 
	C296.918427,369.244232 292.394836,369.463654 284.734070,362.304260 
	C278.316681,369.923035 272.692444,370.024933 266.791321,363.570190 
	C263.200348,365.214813 260.021362,367.760101 256.769348,367.857086 
	C253.445236,367.956177 250.049545,365.653534 246.134323,364.197418 
	C239.869659,370.374756 234.234344,370.338745 228.373825,363.152496 
	C219.988037,370.319366 214.512711,370.122406 210.055588,363.184235 
	C206.525208,364.836029 203.140259,367.619873 199.711426,367.675049 
	C196.501617,367.726746 193.245300,364.887115 189.489334,363.068054 
	C182.440628,369.406250 177.513229,369.220886 172.300812,362.150055 
	C168.527649,363.591675 164.972092,366.081360 161.525696,365.938416 
	C158.288559,365.804169 155.166779,362.888702 151.650055,361.013428 
	C144.945877,367.502014 139.390808,367.091888 134.378357,359.638641 
	C130.681671,361.072327 127.163719,363.592255 123.789177,363.412994 
	C120.562546,363.241516 117.485069,360.262695 113.966965,358.309570 
	C107.248665,364.422852 101.866821,363.900879 96.587029,356.336060 
	C93.005371,357.639130 89.590523,359.977966 86.353539,359.753418 
	C83.061531,359.524963 79.944771,356.770721 76.327774,354.903992 
	C74.121429,355.665253 70.556686,358.035522 67.256134,357.711823 
	C63.986221,357.391144 60.982674,354.354401 57.507431,352.299072 
	C49.735298,359.321381 39.506756,354.457733 39.608082,345.570465 
z"/>
<path fill="#4E8D9C" opacity="1.000000" stroke="none" 
	d="
M66.560562,211.511017 
	C63.502014,209.709351 60.819267,207.990036 57.526291,205.879623 
	C57.487324,205.909500 56.539944,206.720413 55.511192,207.409927 
	C51.472134,210.117004 47.377495,210.129639 43.384460,207.372055 
	C40.267540,205.219513 38.249279,198.737381 39.799770,195.141907 
	C40.197014,194.220734 42.058880,193.273560 43.126354,193.396164 
	C64.272072,195.825104 85.348587,199.014389 106.544060,200.813248 
	C134.386353,203.176239 162.299423,205.383072 190.218521,205.995956 
	C227.010300,206.803619 263.882690,207.089706 300.636322,205.568268 
	C335.004028,204.145599 369.270477,200.165771 403.562561,197.099945 
	C412.985229,196.257507 422.356171,194.762711 431.716797,193.342850 
	C434.689240,192.891968 435.789154,193.864136 435.706451,196.669373 
	C435.576233,201.085022 435.260529,205.416779 430.809021,207.963516 
	C425.390167,211.063660 420.917542,208.994247 416.854095,205.230820 
	C410.486481,213.320755 405.221954,213.881851 398.989319,208.134048 
	C395.257812,210.238007 392.017395,213.205505 388.419281,213.732925 
	C385.541809,214.154739 382.229279,211.608826 379.359406,210.478378 
	C376.644318,212.102051 373.531616,215.253265 370.109497,215.635696 
	C366.891754,215.995285 363.347412,213.432556 359.654602,212.045853 
	C353.979492,219.485764 348.265320,219.910400 342.314850,213.374969 
	C338.868225,215.310089 335.750885,218.293701 332.393463,218.594086 
	C329.118958,218.887070 325.599060,216.437363 321.887482,215.082458 
	C316.940491,222.344696 309.504395,221.671310 303.572113,215.142838 
	C297.199402,222.829819 291.887421,223.127609 285.588959,216.760849 
	C282.077515,218.449478 278.893188,221.129440 275.628876,221.230743 
	C272.297882,221.334106 268.888245,218.904129 265.103027,217.422791 
	C259.523376,223.794052 254.164520,223.951828 247.198715,217.089233 
	C239.483261,224.008804 234.752457,223.988693 228.299149,217.008896 
	C220.189346,224.009323 214.974854,223.804047 209.354004,216.263077 
	C202.007523,223.773270 195.925568,223.587723 191.225113,216.534561 
	C187.557098,218.049240 184.095505,220.605606 180.660614,220.570206 
	C177.428574,220.536896 174.224686,217.769760 170.652527,216.032288 
	C165.528259,221.769363 157.887085,222.248611 152.527695,214.037903 
	C144.880356,221.258850 139.800644,220.868835 134.387299,213.441711 
	C130.642731,214.934143 127.097015,217.551529 123.726151,217.342972 
	C120.527641,217.145050 117.512215,213.988129 114.056671,211.916840 
	C106.480774,218.157059 101.877403,217.749084 96.543030,210.117920 
	C92.978813,211.469254 89.504471,213.951920 86.247398,213.693710 
	C82.988914,213.435425 79.947617,210.437332 76.602333,208.520599 
	C74.077385,209.323257 70.506874,210.458298 66.560562,211.511017 
z"/>
<path fill="#A11D2E" opacity="1.000000" stroke="none" 
	d="
M199.477524,299.026428 
	C199.544724,303.852203 199.307816,308.215302 199.795319,312.495972 
	C200.080704,315.001801 201.521515,317.376038 202.701065,320.492432 
	C200.163132,324.326569 198.597534,324.423676 192.376236,320.212280 
	C185.603607,324.316223 184.526413,324.286102 181.839294,320.858185 
	C182.908707,317.036774 184.525253,313.966980 184.474045,310.925293 
	C184.332138,302.497375 183.327652,294.087067 183.029572,285.656891 
	C182.933289,282.934448 184.333832,280.183197 184.420044,277.425476 
	C184.643768,270.270050 184.695023,263.096863 184.419617,255.945999 
	C184.340073,253.880478 182.920288,251.866562 181.736908,248.872589 
	C183.721222,245.041779 185.547073,244.860764 192.218750,249.002106 
	C203.912811,242.593719 217.675430,243.880585 223.480133,252.509216 
	C232.744370,266.280457 232.308685,274.971130 217.730301,289.669220 
	C223.961258,299.248657 225.576248,311.551178 234.532394,320.102386 
	C231.754593,324.340942 230.131577,324.444733 223.419312,320.348389 
	C219.399719,322.652679 215.144196,325.725586 210.684586,319.772675 
	C215.011108,317.736816 214.246689,314.409271 212.863770,311.090118 
	C210.625977,305.719177 208.437759,300.310974 205.818771,295.125519 
	C205.034546,293.572815 202.884979,292.709656 201.360931,291.530609 
	C200.733765,293.197021 200.049011,294.845093 199.510178,296.539612 
	C199.317657,297.145020 199.478256,297.862671 199.477524,299.026428 
M211.310638,254.344086 
	C209.246521,253.339783 206.671967,251.056442 205.237122,251.629044 
	C203.049164,252.502167 200.281372,255.266953 200.152313,257.375000 
	C199.597153,266.443817 199.915192,275.566071 199.915192,284.659027 
	C207.383423,286.036713 212.232147,284.115601 212.639862,278.184265 
	C213.166473,270.523193 212.083710,262.751495 211.310638,254.344086 
z"/>
<path fill="#A22030" opacity="1.000000" stroke="none" 
	d="
M342.080627,321.604309 
	C340.466949,314.271576 339.949890,307.288086 343.016754,300.702026 
	C343.923370,298.755096 346.317810,296.576141 348.270477,296.317780 
	C350.002075,296.088684 352.066711,298.377136 354.360321,299.785034 
	C347.436127,304.995056 345.636047,315.065643 349.664246,321.288788 
	C353.697693,327.520142 362.207916,327.433899 365.660278,320.825745 
	C369.353455,313.756653 369.038055,306.314545 365.799286,299.140106 
	C364.080383,295.332489 361.335968,294.587250 354.650574,295.351868 
	C350.727539,287.011658 345.917480,278.811584 343.068726,269.978943 
	C341.325592,264.574280 341.869568,258.101776 342.647888,252.277405 
	C344.777924,236.337509 360.748505,228.252136 374.426453,239.822479 
	C375.857147,238.218414 377.290924,236.615387 378.724701,235.012344 
	C379.215424,235.173813 379.706116,235.335281 380.196808,235.496750 
	C380.196808,244.002213 380.317688,252.510895 380.092041,261.010376 
	C380.048340,262.655792 378.949310,264.560638 377.753510,265.767731 
	C377.148468,266.378540 374.724457,266.176453 374.066559,265.466858 
	C373.412262,264.761230 373.405457,262.555115 374.044403,261.708771 
	C376.605316,258.316376 376.145477,251.768570 372.642700,246.984268 
	C369.514343,242.711441 364.481445,240.800964 360.469666,242.829559 
	C358.846222,243.650467 356.909424,245.358200 356.589508,246.957336 
	C355.756226,251.121933 355.008209,255.546555 355.557434,259.691010 
	C356.517212,266.933289 359.211090,268.285431 365.643433,266.516815 
	C368.951996,271.073364 372.226440,275.401672 375.309174,279.862457 
	C384.513916,293.181824 384.834808,307.551788 379.539581,322.223297 
	C376.252045,331.331970 368.645660,334.073700 359.562439,334.065918 
	C350.891327,334.058502 344.901489,330.445129 342.080627,321.604309 
z"/>
<path fill="#A21F30" opacity="1.000000" stroke="none" 
	d="
M132.597961,331.837433 
	C121.200027,335.706726 113.322845,333.296417 106.264359,324.098572 
	C100.171486,316.158966 98.075989,306.749969 96.297852,297.217987 
	C96.237061,296.892090 96.310265,296.528076 96.199333,296.226593 
	C90.581184,280.958313 97.066460,266.955994 101.309219,252.960129 
	C104.753792,241.597275 114.299049,234.302109 123.419624,235.129089 
	C127.952438,235.540085 132.301437,237.978302 137.063782,239.612747 
	C137.779800,238.740677 139.239105,236.963379 140.698425,235.186066 
	C141.177078,235.349075 141.655746,235.512085 142.134399,235.675110 
	C142.134399,244.501389 142.250259,253.330566 142.030731,262.151367 
	C141.989792,263.796448 140.942474,265.789307 139.707489,266.889923 
	C138.983521,267.535095 136.970901,266.734283 135.537933,266.583923 
	C135.832825,265.306305 136.048920,264.002502 136.460388,262.763580 
	C136.631058,262.249695 137.409592,261.940918 137.589264,261.426300 
	C140.296341,253.673248 132.672928,242.701294 124.490669,242.423721 
	C120.529099,242.289322 117.557571,243.823639 116.271667,247.569870 
	C115.204781,250.678009 114.092567,253.973099 114.053764,257.198029 
	C113.837257,275.191467 113.841133,293.189789 114.032646,311.183655 
	C114.065216,314.243713 114.951447,317.472168 116.175827,320.306366 
	C119.006020,326.857666 126.979279,328.144714 131.681381,322.783417 
	C136.707932,317.052216 137.286377,310.164093 135.450195,303.045410 
	C134.813889,300.578552 133.542038,298.275604 132.560471,295.897827 
	C131.552933,296.378235 130.545395,296.858643 129.537857,297.339020 
	C131.417709,296.071228 133.251144,293.897736 135.190887,293.798340 
	C137.015305,293.704803 139.729660,295.343262 140.707626,297.009216 
	C145.526199,305.217499 143.763290,326.055328 132.597961,331.837433 
z"/>
<path fill="#A22030" opacity="1.000000" stroke="none" 
	d="
M290.340027,283.948761 
	C293.865723,273.824646 292.219330,263.770142 292.011200,253.840698 
	C291.974152,252.073654 290.210693,250.342789 289.095673,248.326126 
	C291.667603,244.061737 293.365448,243.934067 299.764740,247.964905 
	C306.646973,244.039261 307.769379,244.100311 310.113159,247.447205 
	C309.035889,251.096970 307.558777,253.852081 307.513489,256.630524 
	C307.271759,271.456055 307.327728,286.287903 307.437012,301.116364 
	C307.456299,303.736237 307.949188,306.429413 308.695282,308.948944 
	C309.775970,312.598236 312.173431,314.845551 316.313538,314.959290 
	C320.593506,315.076874 323.992310,313.639771 325.521393,309.572174 
	C326.556244,306.819366 327.275482,303.774597 327.313416,300.849731 
	C327.499420,286.522552 327.393555,272.191833 327.427155,257.862427 
	C327.436890,253.716858 326.645111,250.177475 321.700714,249.478851 
	C323.696106,244.302567 325.580139,243.933563 330.591888,247.554001 
	C335.274170,244.016708 336.380280,244.178131 339.173462,249.165710 
	C333.676910,250.940430 333.037262,255.488037 333.367249,260.266846 
	C333.878998,267.677216 334.686157,275.067291 335.375977,282.465240 
	C335.421082,282.949219 335.648224,283.439423 335.597443,283.905670 
	C334.738525,291.794189 333.999115,299.699799 332.929016,307.560242 
	C331.503265,318.033051 322.992004,324.033722 311.073517,323.247437 
	C300.277832,322.535248 292.971069,314.673798 292.354309,303.590942 
	C291.996613,297.163879 291.071381,290.768463 290.340027,283.948761 
z"/>
<path fill="#A22031" opacity="1.000000" stroke="none" 
	d="
M255.012543,274.010498 
	C255.029251,284.839630 254.873642,295.175018 255.114349,305.501190 
	C255.327118,314.628967 261.805359,319.409241 269.700104,316.581879 
	C275.177704,314.620178 276.993042,310.140839 277.428314,304.841553 
	C277.807404,300.226501 276.546478,296.573029 271.094330,295.588470 
	C271.064026,295.036316 271.033752,294.484161 271.003448,293.932007 
	C273.379883,293.206940 276.089233,291.422729 278.044556,292.037354 
	C280.256195,292.732544 282.699738,295.277222 283.458527,297.547150 
	C286.330780,306.139496 283.360901,315.777069 277.162628,320.101471 
	C270.441010,324.790924 258.703583,324.539459 251.664444,319.429321 
	C243.642288,313.605621 240.006134,305.136810 237.669434,295.889801 
	C236.817093,292.516846 235.720596,289.205963 234.762268,285.859131 
	C234.542053,285.090057 234.113159,284.191193 234.320419,283.518463 
	C236.519836,276.379333 238.334991,269.066650 241.216003,262.204834 
	C246.263290,250.183609 254.903915,244.192093 265.617554,245.147186 
	C269.739990,245.514694 273.719910,247.480759 278.189392,248.848404 
	C279.056793,248.022339 280.561951,246.588898 282.067108,245.155457 
	C282.488922,245.264038 282.910736,245.372604 283.332550,245.481171 
	C283.332550,252.789963 283.548706,260.108398 283.223297,267.402679 
	C283.097870,270.214325 280.860077,271.992493 277.895050,270.857697 
	C277.081482,270.546326 276.971252,268.397186 276.538269,267.091339 
	C281.213470,266.687683 279.173737,263.307953 278.734100,261.282257 
	C277.388916,255.083984 270.197449,250.214767 264.048676,250.914902 
	C258.761078,251.517014 255.256195,256.387115 255.068375,263.515045 
	C254.980606,266.845795 255.026962,270.180084 255.012543,274.010498 
z"/>
<path fill="#A21F30" opacity="1.000000" stroke="none" 
	d="
M151.825394,287.759827 
	C151.465042,285.803314 150.973175,284.211517 151.059860,282.651886 
	C151.545944,273.905945 152.397873,265.173126 152.602829,256.423553 
	C152.659607,254.000153 150.935547,251.535034 149.750961,248.340500 
	C151.906998,244.756088 153.738785,244.620529 159.704514,248.513535 
	C167.559723,244.772751 168.413010,244.827133 170.530899,248.062637 
	C169.446304,251.604172 167.910995,254.228897 167.985535,256.807068 
	C168.243271,265.722961 169.388229,274.617096 169.539719,283.530670 
	C169.625626,288.586731 168.203445,293.650146 167.884079,298.736847 
	C167.592499,303.381439 167.634430,308.080963 168.006302,312.717987 
	C168.175064,314.822205 169.496613,316.833984 170.739471,320.030151 
	C169.021500,323.688812 166.649857,323.972473 160.395966,319.840271 
	C152.612152,323.750763 151.838257,323.686279 149.735458,320.073303 
	C150.989197,316.471527 152.691162,313.773163 152.730637,311.050659 
	C152.841324,303.418915 152.265808,295.777161 151.825394,287.759827 
z"/>
<path fill="#518F9E" opacity="1.000000" stroke="none" 
	d="
M240.217682,36.688156 
	C246.753052,35.714401 253.293808,34.775135 259.822205,33.756817 
	C265.886902,32.810841 271.925140,31.683640 278.004364,30.850346 
	C279.682678,30.620291 281.465851,31.155207 284.297211,31.455343 
	C280.898743,33.716358 278.502167,35.310810 275.495850,37.310936 
	C278.625549,39.967701 281.310974,42.247330 283.996399,44.526962 
	C283.884674,44.875477 283.772949,45.223991 283.661194,45.572506 
	C281.339630,45.342209 279.019440,45.096821 276.696259,44.884262 
	C267.241913,44.019249 258.152740,45.869225 249.137161,48.469566 
	C246.445480,49.245918 243.620056,49.558556 240.370575,49.619072 
	C239.996063,44.999046 240.106873,40.843601 240.217682,36.688156 
z"/>
<path fill="#B99C1F" opacity="1.000000" stroke="none" 
	d="
M240.294098,36.326263 
	C240.106873,40.843601 239.996063,44.999046 239.942383,49.618427 
	C239.827026,53.571842 239.654556,57.061317 239.303329,60.945259 
	C238.232101,61.502171 237.339630,61.664623 236.188507,61.934425 
	C235.805252,56.433743 235.753616,50.822823 235.531952,45.218628 
	C235.366852,41.044033 236.513016,36.718956 233.360504,32.861000 
	C232.655838,31.998674 233.546173,28.780203 234.692902,27.758934 
	C235.802322,26.770914 238.767609,26.427023 239.867752,27.233139 
	C241.240204,28.238792 241.886948,30.661034 242.159683,32.569839 
	C242.306168,33.595207 241.013672,34.826176 240.294098,36.326263 
z"/>
<path fill="#F1DFE1" opacity="1.000000" stroke="none" 
	d="
M198.078674,98.545670 
	C199.526199,100.047829 200.985474,101.443275 201.513046,103.130127 
	C201.677689,103.656517 199.341537,105.688873 198.120468,105.716446 
	C196.954605,105.742783 194.618881,103.742561 194.774490,103.182060 
	C195.242874,101.494957 196.674789,100.075356 198.078674,98.545670 
z"/>
<path fill="#F0DDDF" opacity="1.000000" stroke="none" 
	d="
M289.413635,101.432259 
	C291.288116,100.383888 293.018036,99.392632 294.840881,99.173035 
	C295.310425,99.116470 296.816040,101.716682 296.516846,102.686523 
	C296.118805,103.976944 293.788391,105.963593 293.390594,105.734756 
	C291.796753,104.817871 290.628998,103.160271 289.413635,101.432259 
z"/>
<path fill="#F0DFE0" opacity="1.000000" stroke="none" 
	d="
M280.188416,100.060303 
	C279.895294,102.069992 279.642731,103.958206 278.713654,105.414955 
	C278.401276,105.904724 275.691803,105.743721 275.265015,105.096886 
	C274.415741,103.809830 273.616302,101.599625 274.180695,100.451157 
	C275.442596,97.883385 277.770905,97.871918 280.188416,100.060303 
z"/>
<path fill="#F2E1E3" opacity="1.000000" stroke="none" 
	d="
M185.869690,101.367935 
	C184.999176,103.088188 184.251648,104.770432 182.959183,105.667450 
	C182.354736,106.086937 179.918335,105.246254 179.679977,104.524818 
	C179.193176,103.051460 178.967636,100.649223 179.819504,99.740540 
	C182.017426,97.396095 184.236374,98.385742 185.869690,101.367935 
z"/>
<path fill="#F1DFE1" opacity="1.000000" stroke="none" 
	d="
M242.770172,100.033310 
	C244.725281,99.757278 246.677155,99.317764 248.091309,99.997261 
	C248.730530,100.304413 248.795563,103.089989 248.190308,104.276237 
	C247.747940,105.143196 244.808365,105.823471 244.659103,105.575882 
	C243.697769,103.981239 243.198532,102.108009 242.770172,100.033310 
z"/>
<path fill="#F0DEDF" opacity="1.000000" stroke="none" 
	d="
M226.224136,102.107468 
	C227.643845,100.719063 228.957870,99.326065 230.538177,98.883194 
	C231.046524,98.740730 232.983963,101.127357 232.943985,102.312302 
	C232.902969,103.528481 231.242950,104.690025 230.291473,105.875473 
	C228.934906,104.740799 227.578339,103.606133 226.224136,102.107468 
z"/>
<path fill="#F3E5E5" opacity="1.000000" stroke="none" 
	d="
M211.902771,105.268501 
	C211.569275,103.167595 211.312119,101.227074 211.723862,99.440727 
	C211.812805,99.054916 214.841965,98.631210 215.568405,99.282623 
	C216.555511,100.167763 217.445190,102.804153 216.924622,103.382530 
	C215.874222,104.549522 213.844498,104.835022 211.902771,105.268501 
z"/>
<path fill="#F4E8E8" opacity="1.000000" stroke="none" 
	d="
M265.018127,102.707764 
	C263.286713,103.886246 261.638702,104.930237 259.860748,105.248566 
	C259.438202,105.324226 257.835480,102.759834 258.110291,101.786774 
	C258.460541,100.546753 260.532379,98.643936 261.214661,98.882034 
	C262.710724,99.404114 263.799103,101.094421 265.018127,102.707764 
z"/>
<path fill="#F9F1F1" opacity="1.000000" stroke="none" 
	d="
M211.502304,254.685760 
	C212.083710,262.751495 213.166473,270.523193 212.639862,278.184265 
	C212.232147,284.115601 207.383423,286.036713 199.915192,284.659027 
	C199.915192,275.566071 199.597153,266.443817 200.152313,257.375000 
	C200.281372,255.266953 203.049164,252.502167 205.237122,251.629044 
	C206.671967,251.056442 209.246521,253.339783 211.502304,254.685760 
z"/>
</svg>